<svg width="38" height="37" viewBox="0 0 38 37" fill="none" xmlns="http://www.w3.org/2000/svg">
<path d="M18.9984 11.3728C17.0567 11.3728 15.1944 12.1239 13.8214 13.4607C12.4484 14.7976 11.6771 16.6108 11.6771 18.5015C11.6771 20.3921 12.4484 22.2053 13.8214 23.5422C15.1944 24.8791 17.0567 25.6301 18.9984 25.6301C20.9401 25.6301 22.8023 24.8791 24.1754 23.5422C25.5484 22.2053 26.3197 20.3921 26.3197 18.5015C26.3197 16.6108 25.5484 14.7976 24.1754 13.4607C22.8023 12.1239 20.9401 11.3728 18.9984 11.3728ZM18.9984 23.1311C17.7369 23.1311 16.5271 22.6432 15.6352 21.7747C14.7432 20.9061 14.2421 19.7282 14.2421 18.4999C14.2421 17.2717 14.7432 16.0937 15.6352 15.2252C16.5271 14.3567 17.7369 13.8688 18.9984 13.8688C20.2599 13.8688 21.4696 14.3567 22.3616 15.2252C23.2536 16.0937 23.7547 17.2717 23.7547 18.4999C23.7547 19.7282 23.2536 20.9061 22.3616 21.7747C21.4696 22.6432 20.2599 23.1311 18.9984 23.1311Z" fill="white"/>
<path d="M26.6095 12.7728C27.5521 12.7728 28.3163 12.0287 28.3163 11.1109C28.3163 10.193 27.5521 9.44897 26.6095 9.44897C25.6668 9.44897 24.9026 10.193 24.9026 11.1109C24.9026 12.0287 25.6668 12.7728 26.6095 12.7728Z" fill="white"/>
<path d="M32.5106 9.42123C32.1441 8.49959 31.5839 7.66262 30.866 6.9639C30.1482 6.26518 29.2884 5.72011 28.3417 5.36356C27.2339 4.95865 26.0635 4.73971 24.8805 4.71606C23.3558 4.65131 22.8728 4.63281 19.0063 4.63281C15.1398 4.63281 14.6443 4.63281 13.1322 4.71606C11.95 4.7385 10.7805 4.95749 9.67417 5.36356C8.72724 5.71969 7.86722 6.26462 7.14929 6.96339C6.43135 7.66217 5.87137 8.49935 5.50526 9.42123C5.08932 10.4998 4.86498 11.6394 4.84184 12.7913C4.77376 14.2744 4.75317 14.7446 4.75317 18.5109C4.75317 22.2756 4.75317 22.7551 4.84184 24.2305C4.86559 25.3836 5.08884 26.5214 5.50526 27.6021C5.8724 28.5237 6.43293 29.3605 7.15103 30.0592C7.86914 30.7579 8.72902 31.303 9.67576 31.6598C10.78 32.0809 11.95 32.3156 13.1353 32.3535C14.6601 32.4183 15.143 32.4383 19.0095 32.4383C22.876 32.4383 23.3716 32.4383 24.8837 32.3535C26.0666 32.3301 27.2369 32.1117 28.3448 31.7076C29.2913 31.3502 30.1508 30.8046 30.8686 30.1057C31.5864 29.4068 32.1467 28.5699 32.5138 27.6484C32.9302 26.5692 33.1534 25.4314 33.1772 24.2783C33.2453 22.7952 33.2658 22.325 33.2658 18.5587C33.2658 14.7924 33.2658 14.3145 33.1772 12.8391C33.1587 11.6709 32.9332 10.5147 32.5106 9.42123ZM30.5821 24.1164C30.5719 25.0049 30.4053 25.8851 30.0897 26.7187C29.8519 27.3182 29.4879 27.8626 29.021 28.3169C28.5542 28.7712 27.9949 29.1254 27.379 29.3565C26.5323 29.6625 25.6379 29.8246 24.7348 29.836C23.2307 29.9038 22.8063 29.9208 18.9493 29.9208C15.0892 29.9208 14.6949 29.9208 13.1623 29.836C12.2596 29.8252 11.3657 29.663 10.5197 29.3565C9.90168 29.1268 9.34009 28.7733 8.87125 28.3189C8.40241 27.8645 8.03675 27.3194 7.79792 26.7187C7.48671 25.894 7.32025 25.0242 7.30551 24.1457C7.23742 22.6811 7.22159 22.2679 7.22159 18.5124C7.22159 14.7554 7.22159 14.3715 7.30551 12.8776C7.31574 11.9897 7.48229 11.11 7.79792 10.2769C8.28084 9.06048 9.27042 8.1031 10.5197 7.63752C11.3661 7.33249 12.2598 7.17034 13.1623 7.15806C14.668 7.09177 15.0908 7.07327 18.9493 7.07327C22.8079 7.07327 23.2038 7.07327 24.7348 7.15806C25.638 7.16864 26.5325 7.33084 27.379 7.63752C27.9948 7.86919 28.5541 8.22367 29.0209 8.67819C29.4877 9.13272 29.8517 9.67726 30.0897 10.2769C30.4009 11.1016 30.5673 11.9714 30.5821 12.8499C30.6502 14.316 30.6676 14.7276 30.6676 18.4847C30.6676 22.2402 30.6676 22.6441 30.5995 24.1179H30.5821V24.1164Z" fill="white"/>
</svg>
