<svg width="37" height="37" viewBox="0 0 37 37" fill="none" xmlns="http://www.w3.org/2000/svg">
<path d="M29.3225 7.66989C27.1811 5.52944 24.453 4.07204 21.4833 3.482C18.5137 2.89195 15.4357 3.19576 12.6387 4.355C9.84164 5.51424 7.45117 7.47685 5.76954 9.99465C4.08792 12.5125 3.19066 15.4724 3.19122 18.5001C3.19122 22.5609 4.80386 26.4556 7.67458 29.3277C10.5453 32.1999 14.4391 33.8145 18.5 33.8166C20.5095 33.8174 22.4998 33.4246 24.3583 32.6603C26.2109 31.8783 27.8962 30.7478 29.3225 29.3303C30.7449 27.9082 31.8732 26.2197 32.643 24.3615C33.4128 22.5032 33.809 20.5115 33.809 18.5001C33.809 16.4887 33.4128 14.497 32.643 12.6387C31.8732 10.7805 30.7449 9.09205 29.3225 7.66989ZM28.2433 28.2357C26.0388 30.4497 23.1462 31.847 20.0416 32.1978V22.0845H22.94C23.3489 22.0845 23.741 21.922 24.0301 21.6329C24.3192 21.3438 24.4816 20.9517 24.4816 20.5428C24.4816 20.1339 24.3192 19.7418 24.0301 19.4527C23.741 19.1636 23.3489 19.0011 22.94 19.0011H20.0416V14.777C20.0416 14.3681 20.2041 13.976 20.4932 13.6869C20.7823 13.3977 21.1744 13.2353 21.5833 13.2353H23.4333C23.8422 13.2353 24.2343 13.0729 24.5234 12.7838C24.8125 12.4946 24.975 12.1025 24.975 11.6936C24.975 11.2848 24.8125 10.8926 24.5234 10.6035C24.2343 10.3144 23.8422 10.152 23.4333 10.152H20.8125C19.7903 10.152 18.81 10.558 18.0872 11.2808C17.3644 12.0036 16.9583 12.984 16.9583 14.0061V19.0011H14.0754C13.6665 19.0011 13.2744 19.1636 12.9853 19.4527C12.6961 19.7418 12.5337 20.1339 12.5337 20.5428C12.5337 20.9517 12.6961 21.3438 12.9853 21.6329C13.2744 21.922 13.6665 22.0845 14.0754 22.0845H16.9583V32.1978C14.0953 31.8712 11.4072 30.6533 9.27379 28.7162C7.14038 26.7791 5.66947 24.2207 5.06882 21.4024C4.46817 18.5841 4.76813 15.6483 5.92634 13.0097C7.08455 10.3711 9.04247 8.16304 11.5235 6.69744C14.0046 5.23184 16.8834 4.58276 19.7534 4.84189C22.6233 5.10101 25.3393 6.25525 27.5178 8.14156C29.6962 10.0279 31.2269 12.5509 31.8938 15.3543C32.5606 18.1577 32.3299 21.0997 31.2341 23.7649C30.5362 25.4349 29.5205 26.9533 28.2433 28.2357Z" fill="white"/>
</svg>
