<svg width="32" height="33" viewBox="0 0 32 33" fill="none" xmlns="http://www.w3.org/2000/svg">
<g clip-path="url(#clip0_259_473)">
<path d="M19.5149 12.3254C18.8369 12.3254 18.3349 12.5018 17.9419 12.7245C17.8789 12.4935 17.6719 12.3244 17.4279 12.3749H14.4439C14.1489 12.3244 13.9099 12.5708 14.0009 12.8905V24.2343C13.9099 24.523 14.1489 24.7705 14.4439 24.7499H17.4279C17.7229 24.7705 17.9619 24.523 17.9619 24.2188L17.9609 17.3631C17.9599 17.36 17.9489 17.032 18.1499 16.8062C18.3109 16.6268 18.5879 16.535 18.9709 16.535C19.6089 16.535 19.8929 16.8041 19.9989 17.4064V24.2188C19.8939 24.523 20.1329 24.7705 20.4279 24.7499H23.5729C23.8679 24.7705 24.1069 24.523 24.0009 24.2188V17.1774C24.1059 13.5969 21.6329 12.3254 19.5149 12.3254ZM23.0379 23.7187H20.9619V17.4064C20.9619 16.1885 20.1989 15.4336 18.9719 15.4336C18.2779 15.4336 17.7379 15.644 17.3659 16.0585C16.8489 16.636 16.8889 17.3682 16.9999 17.5312V23.7187H14.9779V13.4268H16.8939V13.7733C16.8932 13.8765 16.9206 13.9779 16.9732 14.0657C17.0258 14.1535 17.1013 14.2243 17.1911 14.2699C17.2809 14.3154 17.3814 14.3339 17.481 14.3233C17.5805 14.3126 17.6751 14.2731 17.7539 14.2095L17.8939 14.0981C18.2989 13.7692 18.7179 13.4278 19.5159 13.4278C20.3419 13.4278 23.0389 13.699 23.0389 17.1785L23.0379 23.7187ZM10.9999 7.18359C9.87794 7.18359 8.96594 8.12409 8.96594 9.28116C8.96594 10.4382 9.87794 11.3787 10.9999 11.3787C12.1219 11.3787 13.0339 10.4382 13.0339 9.28116C13.0339 8.12409 12.1219 7.18359 10.9999 7.18359ZM10.9999 10.2773C10.4679 10.2773 10.0339 9.82978 10.0339 9.28116C10.0339 8.73253 10.4679 8.28497 10.9999 8.28497C11.5319 8.28497 11.9659 8.73253 11.9659 9.28116C11.9659 9.82978 11.5319 10.2773 10.9999 10.2773ZM12.4279 12.3244H9.45994C9.16494 12.3244 8.92594 12.5708 8.99994 12.8905V24.2343C8.92594 24.523 9.16494 24.7705 9.45994 24.7499H12.4279C12.7229 24.7705 12.9619 24.523 12.9619 24.2188V12.8751C12.9619 12.729 12.9057 12.5889 12.8055 12.4857C12.7054 12.3824 12.5696 12.3244 12.4279 12.3244ZM11.9999 23.7187H9.99394V13.4268H11.9999V23.7187Z" fill="white"/>
<path d="M15.9999 -0.0351562C7.15794 -0.0351562 -0.0340576 7.3816 -0.0340576 16.4999C-0.0340576 25.6182 7.15794 33.035 15.9999 33.035C24.8419 33.035 32.0339 25.6182 32.0339 16.4999C32.0339 7.3816 24.8419 -0.0351562 15.9999 -0.0351562ZM15.9999 31.9336C7.74794 31.9336 1.03394 25.0098 1.03394 16.4999C1.03394 7.99003 7.74794 1.06622 15.9999 1.06622C24.2519 1.06622 30.9659 7.99003 30.9659 16.4999C30.9659 25.0098 24.2519 31.9336 15.9999 31.9336Z" fill="white"/>
</g>
<defs>
<clipPath id="clip0_259_473">
<rect width="32" height="33" fill="white"/>
</clipPath>
</defs>
</svg>
