<svg width="33" height="33" viewBox="0 0 33 33" fill="none" xmlns="http://www.w3.org/2000/svg">
<g clip-path="url(#clip0_259_469)">
<path d="M16.5 -0.0351562C7.38268 -0.0351562 -0.0361328 7.3816 -0.0361328 16.4999C-0.0361328 25.6182 7.38268 33.035 16.5 33.035C25.6172 33.035 33.0361 25.6182 33.0361 16.4999C33.0361 7.3816 25.6172 -0.0351562 16.5 -0.0351562ZM16.5 31.9336C7.99009 31.9336 1.0673 25.0098 1.0673 16.4999C1.0673 7.99003 7.99009 1.06622 16.5 1.06622C25.0098 1.06622 31.9326 7.99003 31.9326 16.4999C31.9326 25.0098 25.0098 31.9336 16.5 31.9336Z" fill="white"/>
<path d="M25.5687 11.3911C25.6831 11.1794 25.7774 10.9574 25.8502 10.728C25.884 10.6216 25.8847 10.5075 25.8522 10.4007C25.8197 10.2939 25.7556 10.1995 25.6684 10.1299C25.5811 10.0603 25.4748 10.0188 25.3635 10.0109C25.2522 10.003 25.1411 10.029 25.0448 10.0855C24.5164 10.3995 23.9444 10.6333 23.3474 10.7796C22.6227 10.1255 21.6815 9.76293 20.7053 9.76172C20.175 9.76213 19.6502 9.86962 19.1624 10.0778C18.6746 10.2859 18.2338 10.5904 17.8665 10.973C17.4992 11.3556 17.213 11.8084 17.0249 12.3043C16.8369 12.8002 16.7509 13.3289 16.7722 13.8589C14.4529 13.5669 12.335 12.3933 10.8579 10.5816C10.8013 10.5129 10.729 10.459 10.6471 10.4243C10.5652 10.3895 10.4761 10.3751 10.3874 10.3822C10.2988 10.3893 10.2131 10.4177 10.1377 10.465C10.0624 10.5122 9.99954 10.577 9.95456 10.6538C9.61634 11.2343 9.4325 11.8918 9.42058 12.5635C9.40867 13.2353 9.56907 13.8989 9.8865 14.491C9.80865 14.5042 9.73386 14.5314 9.66581 14.5715C9.58243 14.6246 9.51378 14.6979 9.4662 14.7846C9.41862 14.8713 9.39364 14.9686 9.39356 15.0675C9.39356 16.238 9.91434 17.3125 10.7538 18.0427L10.7177 18.0788C10.6543 18.1504 10.6107 18.2374 10.5912 18.3311C10.5717 18.4248 10.5769 18.5219 10.6063 18.6129C10.7814 19.159 11.0736 19.6602 11.4627 20.0815C11.8517 20.5028 12.3281 20.834 12.8586 21.0518C11.7691 21.5833 10.55 21.7905 9.34612 21.6489C9.22238 21.6363 9.09795 21.6651 8.99232 21.7308C8.88669 21.7965 8.80584 21.8954 8.76244 22.0119C8.72075 22.1294 8.71997 22.2574 8.76022 22.3754C8.80046 22.4933 8.87938 22.5942 8.98415 22.6616C10.6208 23.712 12.5247 24.2701 14.4694 24.2693C20.8425 24.2693 24.6519 19.0925 24.6519 14.0878L24.6509 13.9187C25.2686 13.4365 25.8051 12.8586 26.2401 12.2068C26.3059 12.1083 26.3383 11.9912 26.3324 11.8728C26.3266 11.7544 26.2827 11.6411 26.2074 11.5496C26.1321 11.4581 26.0293 11.3932 25.9143 11.3647C25.7992 11.3361 25.6781 11.3454 25.5687 11.3911ZM23.7692 13.2009C23.6944 13.2547 23.6342 13.3265 23.5942 13.4095C23.5542 13.4925 23.5357 13.5843 23.5402 13.6763C23.5464 13.8125 23.5495 13.9507 23.5495 14.0868C23.5495 18.55 20.1536 23.1669 14.4704 23.1669C13.4568 23.1674 12.4503 22.9973 11.4932 22.6637C12.6395 22.444 13.7164 21.9524 14.6333 21.2303C14.7226 21.1599 14.7879 21.0636 14.8204 20.9547C14.8529 20.8458 14.851 20.7295 14.8149 20.6217C14.7788 20.5139 14.7102 20.4199 14.6187 20.3526C14.5271 20.2852 14.417 20.2478 14.3033 20.2454C13.8587 20.2369 13.4223 20.124 13.0293 19.9159C12.6362 19.7077 12.2976 19.4101 12.0408 19.0471C12.3017 19.0296 12.5574 18.9863 12.806 18.9192C12.9263 18.887 13.0321 18.815 13.1062 18.7149C13.1803 18.6149 13.2183 18.4926 13.2139 18.3682C13.2096 18.2438 13.1633 18.1245 13.0825 18.0297C13.0016 17.935 12.8911 17.8705 12.7688 17.8467C12.2666 17.7446 11.8017 17.5078 11.4237 17.1618C11.0457 16.8157 10.7688 16.3734 10.6228 15.8822C10.8971 15.9513 11.1787 15.9915 11.4602 16.0008C11.7025 15.9998 11.9273 15.8513 12.0026 15.6182C12.0779 15.3851 11.9892 15.1283 11.784 14.9922C11.2988 14.6689 10.9252 14.2037 10.7142 13.6602C10.5032 13.1166 10.4652 12.5212 10.6053 11.9552C12.3966 13.7932 14.8154 14.8877 17.3785 15.0201C17.56 15.0211 17.7188 14.9561 17.8292 14.8231C17.9395 14.6901 17.9818 14.5137 17.9426 14.3446C17.8016 13.7372 17.8647 13.1002 18.1221 12.5323C18.3796 11.9643 18.817 11.4971 19.3668 11.2028C19.9166 10.9086 20.548 10.8037 21.1634 10.9045C21.7787 11.0053 22.3437 11.306 22.7709 11.7603C22.835 11.8286 22.9153 11.8795 23.0044 11.9082C23.0936 11.9369 23.1885 11.9424 23.2804 11.9243C23.4505 11.8902 23.6186 11.851 23.7847 11.8057C23.7098 11.8617 23.632 11.9137 23.5516 11.9614C23.4447 12.0269 23.3632 12.1269 23.3207 12.2448C23.2782 12.3628 23.2772 12.4918 23.3178 12.6104C23.3584 12.7291 23.4382 12.8304 23.544 12.8976C23.6499 12.9648 23.7755 12.994 23.9002 12.9803L24.0878 12.9565C23.9845 13.0417 23.8782 13.1232 23.7692 13.2009Z" fill="white"/>
</g>
<defs>
<clipPath id="clip0_259_469">
<rect width="33" height="33" fill="white"/>
</clipPath>
</defs>
</svg>
